<?xml version="1.0" standalone="no"?>
<!DOCTYPE svg PUBLIC "-//W3C//DTD SVG 20010904//EN"
 "http://www.w3.org/TR/2001/REC-SVG-20010904/DTD/svg10.dtd">
<svg version="1.0" xmlns="http://www.w3.org/2000/svg"
 width="1200.000000pt" height="1200.000000pt" viewBox="0 0 1200.000000 1200.000000"
 preserveAspectRatio="xMidYMid meet">

<g transform="translate(0.000000,1200.000000) scale(0.100000,-0.100000)"
fill="#000000" stroke="none">
<path d="M6690 8028 c-410 -924 -747 -1681 -750 -1683 -3 -2 -325 716 -715
1596 -390 879 -712 1599 -715 1599 -3 0 -11 -12 -16 -27 -6 -16 -494 -1115
-1084 -2443 -589 -1328 -1074 -2421 -1077 -2428 -4 -10 281 -12 1422 -10
l1428 3 376 847 c206 466 379 844 382 840 4 -4 173 -380 375 -837 202 -456
372 -836 377 -842 7 -10 320 -13 1504 -13 1424 0 1494 1 1489 18 -11 32 -2237
5047 -2244 5054 -4 3 -342 -750 -752 -1674z"/>
</g>
</svg>
